# Blender v2.76 (sub 0) OBJ File: ''
# www.blender.org
mtllib chassis.mtl
o chassis
v 1.020828 1.260071 -0.424364
v 0.751830 2.758033 -0.424364
v 0.751830 2.758033 0.821821
v 1.020828 1.260071 1.428190
v 1.020828 1.260071 -3.174064
v -1.020828 1.260071 -3.174064
v -0.751830 2.758033 -2.567699
v 0.751830 2.758033 -2.567699
v -1.020828 1.260071 -1.579105
v -0.751830 2.758033 -1.576966
v -1.020828 1.260071 1.428190
v -0.751830 2.758033 0.821821
v 1.020828 1.260071 -1.579105
v 0.751830 2.758033 -1.576966
v -1.020828 1.260071 -0.424364
v -0.751830 2.758033 -0.424364
v 1.020828 0.461257 -1.579105
v -1.020828 0.461257 -1.579105
v -1.020828 0.461257 -3.174064
v 1.020828 0.461257 -3.174064
v 1.020828 0.461257 3.266651
v 1.020828 1.260071 3.266651
v -1.020828 1.260071 3.266651
v -1.020828 0.461257 3.266651
v 1.633325 0.461257 -0.424364
v 1.633325 1.260071 -0.424364
v 1.633325 1.260071 1.428190
v 1.633325 0.461257 1.428190
v -1.020828 0.461257 -3.266651
v -1.020828 1.260071 -3.266651
v 1.020828 1.260071 -3.266651
v 1.020828 0.461257 -3.266651
v -1.633325 0.461257 -1.579105
v -1.633325 1.260071 -1.579105
v -1.633325 1.260071 -3.174064
v -1.633325 0.461257 -3.174064
v 1.633325 0.461257 -1.579105
v 1.633325 0.461257 -3.174064
v -1.633325 0.461257 -0.424364
v -1.020828 0.461257 -0.424364
v -1.020828 0.461257 1.428190
v -1.633325 0.461257 1.428190
v 1.633325 0.461257 3.266651
v 1.633325 1.260071 3.266651
v -1.633325 1.260071 3.266651
v -1.633325 0.461257 3.266651
v -1.633325 0.461257 -3.266651
v -1.633325 1.260071 -3.266651
v 1.633325 1.260071 -3.266651
v 1.633325 0.461257 -3.266651
v 1.020828 0.461257 1.428190
v 1.633325 1.260071 -3.174064
v -1.633325 1.260071 1.428190
v 1.020828 0.461257 -0.424364
v 1.633325 1.260071 -1.579105
v -1.633325 1.260071 -0.424364
vt 0.456500 0.343900
vt 0.456500 0.532300
vt 0.507500 0.532300
vt 0.532300 0.343900
vt 0.131300 0.545400
vt 0.002000 0.545400
vt 0.019000 0.674700
vt 0.114300 0.674700
vt 0.067300 0.343900
vt 0.067400 0.532300
vt 0.026800 0.532300
vt 0.002000 0.343900
vt 0.343900 0.545400
vt 0.473200 0.545400
vt 0.456200 0.674700
vt 0.361000 0.674700
vt 0.409200 0.343900
vt 0.409300 0.532300
vt 0.114600 0.343900
vt 0.190400 0.343900
vt 0.165600 0.532300
vt 0.114600 0.532300
vt 0.343900 0.343900
vt 0.368700 0.532300
vt 0.269200 0.245900
vt 0.063700 0.245900
vt 0.063700 0.326200
vt 0.269200 0.326200
vt 0.837200 0.064700
vt 0.685800 0.064700
vt 0.685800 0.002000
vt 0.837200 0.002000
vt 0.245800 0.687700
vt 0.245800 0.731800
vt 0.058300 0.731800
vt 0.058300 0.687700
vt 0.742300 0.415400
vt 0.742300 0.473800
vt 0.870600 0.473800
vt 0.870600 0.415400
vt 0.601600 0.486900
vt 0.601600 0.531000
vt 0.789200 0.531000
vt 0.789200 0.486900
vt 0.662300 0.343900
vt 0.662300 0.402400
vt 0.551800 0.402400
vt 0.551800 0.343900
vt 0.330900 0.245900
vt 0.330900 0.326200
vt 0.002000 0.187800
vt 0.063700 0.187800
vt 0.063700 0.094500
vt 0.002000 0.094500
vt 0.672800 0.187800
vt 0.611100 0.187800
vt 0.611100 0.094500
vt 0.672800 0.094500
vt 0.343900 0.245900
vt 0.405600 0.245900
vt 0.405600 0.326200
vt 0.343900 0.326200
vt 0.302100 0.687700
vt 0.302100 0.731800
vt 0.002000 0.731800
vt 0.002000 0.687700
vt 0.545400 0.486900
vt 0.545400 0.531000
vt 0.845500 0.531000
vt 0.845500 0.486900
vt 0.269200 0.002000
vt 0.063700 0.002000
vt 0.269200 0.094500
vt 0.063700 0.330900
vt 0.269200 0.330900
vt 0.611100 0.330900
vt 0.405600 0.330900
vt 0.611100 0.326200
vt 0.405600 0.002000
vt 0.611100 0.002000
vt 0.405600 0.094500
vt 0.545400 0.415400
vt 0.545400 0.473800
vt 0.551800 0.473800
vt 0.551800 0.415400
vt 0.998000 0.473800
vt 0.998000 0.415400
vt 0.998000 0.343900
vt 0.998000 0.402400
vt 0.870600 0.402400
vt 0.870600 0.343900
vt 0.545400 0.402400
vt 0.545400 0.343900
vt 0.330900 0.002000
vt 0.330900 0.094500
vt 0.330900 0.330900
vt 0.002000 0.330900
vt 0.002000 0.326200
vt 0.002000 0.002000
vt 0.672800 0.330900
vt 0.672800 0.326200
vt 0.672800 0.002000
vt 0.343900 0.002000
vt 0.343900 0.094500
vt 0.343900 0.330900
vt 0.269200 0.187800
vt 0.837200 0.122700
vt 0.685800 0.122700
vt 0.662300 0.415400
vt 0.662300 0.473800
vt 0.742300 0.402400
vt 0.742300 0.343900
vt 0.330900 0.187800
vt 0.002000 0.245900
vt 0.672800 0.245900
vt 0.611100 0.245900
vt 0.405600 0.187800
vt 0.343900 0.187800
vt 0.837200 0.172600
vt 0.685800 0.172600
vn 0.984300 0.176700 0.000000
vn 0.000000 0.375200 -0.926900
vn -0.984300 0.176700 0.000000
vn 0.000000 0.375200 0.926900
vn 0.000000 -1.000000 -0.000000
vn 0.000000 1.000000 0.000000
vn 0.000000 0.000000 1.000000
vn 1.000000 0.000000 0.000000
vn 0.000000 0.000000 -1.000000
vn -1.000000 0.000000 0.000000
usemtl Mat_Chassis
s off
f 1/1/1 2/2/1 3/3/1
f 3/3/1 4/4/1 1/1/1
f 5/5/2 6/6/2 7/7/2
f 7/7/2 8/8/2 5/5/2
f 9/9/3 10/10/3 7/11/3
f 7/11/3 6/12/3 9/9/3
f 11/13/4 4/14/4 3/15/4
f 3/15/4 12/16/4 11/13/4
f 1/1/1 13/17/1 14/18/1
f 14/18/1 2/2/1 1/1/1
f 15/19/3 11/20/3 12/21/3
f 12/21/3 16/22/3 15/19/3
f 15/19/3 16/22/3 10/10/3
f 10/10/3 9/9/3 15/19/3
f 13/17/1 5/23/1 8/24/1
f 8/24/1 14/18/1 13/17/1
s 1
f 17/25/5 18/26/5 19/27/5
f 19/27/5 20/28/5 17/25/5
f 2/29/6 16/30/6 12/31/6
f 12/31/6 3/32/6 2/29/6
f 21/33/7 22/34/7 23/35/7
f 23/35/7 24/36/7 21/33/7
f 25/37/8 26/38/8 27/39/8
f 27/39/8 28/40/8 25/37/8
f 29/41/9 30/42/9 31/43/9
f 31/43/9 32/44/9 29/41/9
f 33/45/10 34/46/10 35/47/10
f 35/47/10 36/48/10 33/45/10
f 37/49/5 17/25/5 20/28/5
f 20/28/5 38/50/5 37/49/5
f 39/51/5 40/52/5 41/53/5
f 41/53/5 42/54/5 39/51/5
f 26/55/6 1/56/6 4/57/6
f 4/57/6 27/58/6 26/55/6
f 34/59/6 9/60/6 6/61/6
f 6/61/6 35/62/6 34/59/6
f 43/63/7 44/64/7 22/34/7
f 22/34/7 21/33/7 43/63/7
f 45/65/7 46/66/7 24/36/7
f 24/36/7 23/35/7 45/65/7
f 47/67/9 48/68/9 30/42/9
f 30/42/9 29/41/9 47/67/9
f 49/69/9 50/70/9 32/44/9
f 32/44/9 31/43/9 49/69/9
f 21/71/5 24/72/5 41/53/5
f 41/53/5 51/73/5 21/71/5
f 29/74/5 32/75/5 20/28/5
f 20/28/5 19/27/5 29/74/5
f 31/76/6 30/77/6 6/61/6
f 6/61/6 5/78/6 31/76/6
f 23/79/6 22/80/6 4/57/6
f 4/57/6 11/81/6 23/79/6
f 50/82/8 49/83/8 52/84/8
f 52/84/8 38/85/8 50/82/8
f 44/86/8 43/87/8 28/40/8
f 28/40/8 27/39/8 44/86/8
f 46/88/10 45/89/10 53/90/10
f 53/90/10 42/91/10 46/88/10
f 48/92/10 47/93/10 36/48/10
f 36/48/10 35/47/10 48/92/10
f 43/94/5 21/71/5 51/73/5
f 51/73/5 28/95/5 43/94/5
f 32/75/5 50/96/5 38/50/5
f 38/50/5 20/28/5 32/75/5
f 47/97/5 29/74/5 19/27/5
f 19/27/5 36/98/5 47/97/5
f 24/72/5 46/99/5 42/54/5
f 42/54/5 41/53/5 24/72/5
f 49/100/6 31/76/6 5/78/6
f 5/78/6 52/101/6 49/100/6
f 22/80/6 44/102/6 27/58/6
f 27/58/6 4/57/6 22/80/6
f 45/103/6 23/79/6 11/81/6
f 11/81/6 53/104/6 45/103/6
f 30/77/6 48/105/6 35/62/6
f 35/62/6 6/61/6 30/77/6
f 51/73/5 41/53/5 40/52/5
f 40/52/5 54/106/5 51/73/5
f 14/107/6 10/108/6 16/30/6
f 16/30/6 2/29/6 14/107/6
f 37/109/8 55/110/8 26/38/8
f 26/38/8 25/37/8 37/109/8
f 42/91/10 53/90/10 56/111/10
f 56/111/10 39/112/10 42/91/10
f 28/95/5 51/73/5 54/106/5
f 54/106/5 25/113/5 28/95/5
f 33/114/5 18/26/5 40/52/5
f 40/52/5 39/51/5 33/114/5
f 55/115/6 13/116/6 1/56/6
f 1/56/6 26/55/6 55/115/6
f 53/104/6 11/81/6 15/117/6
f 15/117/6 56/118/6 53/104/6
f 54/106/5 40/52/5 18/26/5
f 18/26/5 17/25/5 54/106/5
f 39/112/10 56/111/10 34/46/10
f 34/46/10 33/45/10 39/112/10
f 25/113/5 54/106/5 17/25/5
f 17/25/5 37/49/5 25/113/5
f 56/118/6 15/117/6 9/60/6
f 9/60/6 34/59/6 56/118/6
f 8/119/6 7/120/6 10/108/6
f 10/108/6 14/107/6 8/119/6
f 38/85/8 52/84/8 55/110/8
f 55/110/8 37/109/8 38/85/8
f 36/98/5 19/27/5 18/26/5
f 18/26/5 33/114/5 36/98/5
f 52/101/6 5/78/6 13/116/6
f 13/116/6 55/115/6 52/101/6
